# xmcd
#
# Track frame offsets: 
#        150
#        18475
#        34330
#        39960
#        49454
#        64482
#        73407
#        84847
#        91117
#        106215
#        118541
#        129732
#        141667
#        154611
#        159452
#        167425
#
# Disc length: 2387 seconds
#
# Revision: 0
# Processed by: cddbd v1.5.2PL0 Copyright (c) Steve Scherf et al.
# Submitted via: ExactAudioCopy v0.99pb5
#
DISCID=db095110
DTITLE=Gearoge Jones - The Great Geroge Jones Disc 3
DYEAR=1900
DGENRE=
TTITLE0=bartender blues
TTITLE1=he stopped loving her today
TTITLE2=liberty
TTITLE3=old brush arbors
TTITLE4=on the banks of the ponchertrain
TTITLE5=please don't let that woman get me
TTITLE6=she's my rock
TTITLE7=chicken reel
TTITLE8=i always get lucky with you
TTITLE9=blues side of lonesome
TTITLE10=tarnished angel
TTITLE11=they'll never take her love
TTITLE12=things have gone to pieces
TTITLE13=who's gonna chop my baby's lindlin
TTITLE14=yes, i know why
TTITLE15=you comb her hair
EXTD=
EXTT0=
EXTT1=
EXTT2=
EXTT3=
EXTT4=
EXTT5=
EXTT6=
EXTT7=
EXTT8=
EXTT9=
EXTT10=
EXTT11=
EXTT12=
EXTT13=
EXTT14=
EXTT15=
PLAYORDER=
